# xmcd CD database file
#
# Track frame offsets:
#	182
#	20887
#	44275
#	59240
#	83595
#	102432
#	121557
#	146670
#	169135
#	183682
#	211600
#	257832
#	270232
#	287975
#	302295
#	329022
#
# Disc length: 4697 seconds
#
# Revision: 5
# Processed by: cddbd v1.5.1PL0 Copyright (c) Steve Scherf et al.
# Submitted via: CDex 1.50beta9
#
DISCID=ea125710
DTITLE=B.B. King - The Very Best Of B.B. King
DYEAR=1995
DGENRE=Blues
TTITLE0=Hummingbird
TTITLE1=How Blue Can You Get
TTITLE2=Caldonia
TTITLE3=The Thrill Is Gone
TTITLE4=Into The Night
TTITLE5=I'm Moving On
TTITLE6=So Excited
TTITLE7=Midnight Believer
TTITLE8=Gambler's Blues (live)
TTITLE9=Sweet Sixteen (parts I and II)
TTITLE10=Lucille
TTITLE11=Broken Heart
TTITLE12=Everyday (I Have The Blues)
TTITLE13=Ain't Nobody Home
TTITLE14=Philadelphia
TTITLE15=The Blues Come Over Me
EXTD=YEAR: 1995
EXTT0=
EXTT1=
EXTT2=
EXTT3=
EXTT4=
EXTT5=
EXTT6=
EXTT7=
EXTT8=
EXTT9=
EXTT10=
EXTT11=
EXTT12=
EXTT13=
EXTT14=
EXTT15=
PLAYORDER=
